<svg width="30" height="24" viewBox="0 0 30 24" fill="none" xmlns="http://www.w3.org/2000/svg">
<path d="M29.0019 3.87259C28.403 3.24521 27.576 2.87449 26.635 2.87449H21.9011V2.81745C21.9011 2.10452 21.616 1.42011 21.1312 0.96384C20.6464 0.479049 19.9905 0.193878 19.2776 0.193878H10.7224C9.98099 0.193878 9.3251 0.479049 8.8403 0.96384C8.35551 1.44863 8.07034 2.10452 8.07034 2.81745V2.87449H3.36502C2.42395 2.87449 1.59696 3.24521 0.998099 3.87259C0.39924 4.47144 0 5.32696 0 6.23951V20.441C0 21.3821 0.370722 22.2091 0.998099 22.8079C1.59696 23.4068 2.45247 23.806 3.36502 23.806H26.635C27.576 23.806 28.403 23.4353 29.0019 22.8079C29.6008 22.2091 30 21.3536 30 20.441V6.23951C30 5.29844 29.6293 4.47144 29.0019 3.87259ZM28.5171 20.441H28.4886C28.4886 20.9543 28.289 21.4106 27.9468 21.7528C27.6046 22.095 27.1483 22.2946 26.635 22.2946H3.36502C2.85171 22.2946 2.39544 22.095 2.05323 21.7528C1.71103 21.4106 1.51141 20.9543 1.51141 20.441V6.23951C1.51141 5.7262 1.71103 5.26992 2.05323 4.92772C2.39544 4.58551 2.85171 4.38589 3.36502 4.38589H8.86882C9.29658 4.38589 9.63878 4.04369 9.63878 3.61593V2.78893C9.63878 2.47525 9.75285 2.19008 9.95247 1.99046C10.1521 1.79084 10.4373 1.67677 10.751 1.67677H19.2776C19.5913 1.67677 19.8764 1.79084 20.076 1.99046C20.2757 2.19008 20.3897 2.47525 20.3897 2.78893V3.61593C20.3897 4.04369 20.7319 4.38589 21.1597 4.38589H26.6635C27.1768 4.38589 27.6331 4.58551 27.9753 4.92772C28.3175 5.26992 28.5171 5.7262 28.5171 6.23951V20.441Z" fill="black"/>
<path d="M15.0001 6.32504C13.0609 6.32504 11.2929 7.12352 10.0381 8.37828C8.75483 9.66155 7.98486 11.4011 7.98486 13.3403C7.98486 15.2794 8.78334 17.0475 10.0381 18.3022C11.3214 19.5855 13.0609 20.3555 15.0001 20.3555C16.9392 20.3555 18.7073 19.557 19.9621 18.3022C21.2453 17.019 22.0153 15.2794 22.0153 13.3403C22.0153 11.4011 21.2168 9.63303 19.9621 8.37828C18.7073 7.12352 16.9392 6.32504 15.0001 6.32504ZM18.8784 17.2471C17.8803 18.2167 16.5115 18.8441 15.0001 18.8441C13.4887 18.8441 12.1198 18.2167 11.1217 17.2471C10.1236 16.249 9.52479 14.8802 9.52479 13.3688C9.52479 11.8574 10.1522 10.4885 11.1217 9.49045C12.1198 8.49235 13.4887 7.89349 15.0001 7.89349C16.5115 7.89349 17.8803 8.52086 18.8784 9.49045C19.8765 10.4885 20.4754 11.8574 20.4754 13.3688C20.5039 14.8802 19.8765 16.249 18.8784 17.2471Z" fill="black"/>
<path d="M25.152 9.09122C25.9237 9.09122 26.5493 8.46561 26.5493 7.69388C26.5493 6.92215 25.9237 6.29654 25.152 6.29654C24.3802 6.29654 23.7546 6.92215 23.7546 7.69388C23.7546 8.46561 24.3802 9.09122 25.152 9.09122Z" fill="black"/>
</svg>
