<svg width="22" height="30" viewBox="0 0 22 30" fill="none" xmlns="http://www.w3.org/2000/svg">
<path d="M21.8598 17.7825V6.78767V6.78699V0.678733C21.8598 0.303937 21.5559 0 21.1811 0H3.53405C1.66278 0 0.140381 1.5224 0.140381 3.39367V26.6063C0.140381 28.4776 1.66278 30 3.53405 30H21.1811C21.5559 30 21.8598 29.6961 21.8598 29.3213C21.8598 28.9465 21.5559 28.6425 21.1811 28.6425H20.7984V24.5701H21.1811C21.5559 24.5701 21.8598 24.2662 21.8598 23.8914V17.7831V17.7825ZM20.5024 23.2127H16.7112L20.5024 19.4215V23.2127ZM20.5024 5.14867L16.7112 1.35747H20.5024V5.14867ZM1.49785 3.39367C1.49785 2.27091 2.41129 1.35747 3.53405 1.35747V17.5038C3.53405 17.8786 3.83798 18.1825 4.21278 18.1825C4.58757 18.1825 4.89151 17.8786 4.89151 17.5038V1.35747H14.7913L20.5024 7.06853V17.5017L14.7913 23.2127H4.89151V19.819C4.89151 19.4442 4.58757 19.1403 4.21278 19.1403C3.83798 19.1403 3.53405 19.4442 3.53405 19.819V23.2127C2.77074 23.2127 2.0654 23.466 1.49785 23.893V3.39367ZM19.441 28.6425H3.53405C2.41129 28.6425 1.49785 27.7291 1.49785 26.6063C1.49785 25.4836 2.41129 24.5701 3.53405 24.5701H19.441V28.6425Z" fill="black"/>
</svg>
