<svg width="26" height="30" viewBox="0 0 26 30" fill="none" xmlns="http://www.w3.org/2000/svg">
<path d="M15.8364 12.2537C15.6713 11.8718 15.2956 11.625 14.8794 11.625C14.8779 11.625 11.0308 11.6315 11.0099 11.6315C10.6409 11.6315 10.3136 11.906 10.1633 12.2537L8.15476 16.8984C8.04428 17.1537 8.03992 17.437 8.14243 17.6958C8.24494 17.9545 8.44207 18.1579 8.69752 18.2684C8.82927 18.3253 8.96823 18.3541 9.11072 18.3541C9.52685 18.3541 9.9024 18.1074 10.0675 17.7255L10.4331 16.88V25.7422C10.4331 26.3749 10.9479 26.8896 11.5807 26.8896C12.2135 26.8896 12.7283 26.3748 12.7283 25.7422V19.8335H13.2149V25.7422C13.2149 26.3749 13.7297 26.8896 14.3626 26.8896C14.9953 26.8896 15.51 26.3748 15.51 25.7422V16.7494L15.9321 17.7254C16.0973 18.1073 16.4729 18.354 16.8888 18.354C17.0313 18.354 17.1703 18.3252 17.302 18.2683C17.5575 18.1578 17.7546 17.9545 17.8572 17.6957C17.9596 17.437 17.9553 17.1537 17.8448 16.8983L15.8364 12.2537Z" fill="black"/>
<path d="M12.8693 11.2369C14.3171 11.2369 15.495 10.0588 15.495 8.61072C15.495 7.16249 14.317 5.98438 12.8693 5.98438C11.421 5.98438 10.2429 7.16257 10.2429 8.61072C10.2428 10.0588 11.421 11.2369 12.8693 11.2369Z" fill="black"/>
<path d="M23.7654 5.92119L19.0445 1.23396C18.3241 0.518941 17.0647 0 16.0499 0H3.46825C2.10044 0 0.987549 1.11289 0.987549 2.4807V27.5192C0.987549 28.8871 2.10044 30 3.46825 30H22.5315C23.8994 30 25.0123 28.8871 25.0123 27.5192V8.91587C25.0123 7.8976 24.4877 6.63802 23.7654 5.92119ZM3.46765 27.5192L3.46825 2.4801H16.0499C16.0916 2.4801 16.1376 2.48408 16.1863 2.49099V6.98162C16.1863 8.34951 17.2991 9.46239 18.667 9.46239H22.5322L22.5318 27.5199L3.46765 27.5192Z" fill="black"/>
</svg>
