<svg width="23" height="30" viewBox="0 0 23 30" fill="none" xmlns="http://www.w3.org/2000/svg">
<path d="M21.1478 0H21.1457C20.357 0 19.6781 0.588789 19.5665 1.36963L17.243 17.6341C17.1323 18.4091 17.6215 19.1368 18.3811 19.3267L19.16 19.5214L18.7411 27.8977C18.7135 28.4508 18.9084 28.9764 19.2901 29.3776C19.6719 29.7789 20.187 29.9999 20.7408 29.9999C21.8449 29.9999 22.743 29.1018 22.743 27.9978V1.59524C22.743 0.715592 22.0274 0 21.1478 0ZM21.7711 27.9977C21.7711 28.5658 21.3089 29.0279 20.7408 29.0279C20.4559 29.0279 20.1908 28.9142 19.9943 28.7078C19.7979 28.5014 19.6976 28.2309 19.7118 27.9463L20.1506 19.1711C20.1622 18.9393 20.0082 18.7316 19.783 18.6754L18.6167 18.3838C18.342 18.3151 18.165 18.0519 18.2051 17.7716L20.5286 1.50706C20.5722 1.20201 20.8375 0.97192 21.1457 0.97192H21.1477C21.4914 0.97192 21.7711 1.25151 21.7711 1.59524V27.9977Z" fill="black"/>
<path d="M14.967 0.461662C14.9536 0.193606 14.725 -0.012311 14.4574 0.000583152C14.1893 0.0139956 13.9829 0.242138 13.9963 0.510193L14.4114 8.81201H12.8942V0.48596C12.8942 0.217581 12.6766 0 12.4082 0C12.1398 0 11.9222 0.217581 11.9222 0.48596V8.81208H10.405L10.82 0.510258C10.8334 0.242202 10.627 0.0140604 10.3589 0.000647947C10.091 -0.0129589 9.86275 0.193671 9.84933 0.461727L9.36039 10.241C9.33376 10.7736 9.59288 11.2882 10.0366 11.584L10.6238 11.9754C10.7828 12.0815 10.8744 12.2589 10.8687 12.45L10.4105 27.9461C10.3954 28.4902 10.5961 29.0047 10.9755 29.3949C11.355 29.7851 11.8638 30 12.4081 30C12.9525 30 13.4612 29.7851 13.8407 29.3949C14.2202 29.0047 14.4209 28.4902 14.4058 27.9452L13.9476 12.45C13.942 12.2589 14.0336 12.0815 14.1926 11.9754L14.7797 11.584C15.2234 11.2882 15.4825 10.7736 15.4559 10.241L14.967 0.461662ZM14.2407 10.7752L13.6536 11.1666C13.2138 11.4598 12.9606 11.9503 12.9762 12.4786L13.4344 27.973C13.4421 28.2525 13.339 28.5168 13.1441 28.7172C12.9492 28.9176 12.6879 29.028 12.4083 29.028C12.1287 29.028 11.8673 28.9176 11.6724 28.7172C11.4775 28.5168 11.3744 28.2525 11.3822 27.9739L11.8403 12.4786C11.856 11.9503 11.6027 11.4598 11.163 11.1666L10.5758 10.7752C10.4153 10.6682 10.3216 10.4821 10.3313 10.2895L10.3565 9.78393H14.4601L14.4853 10.2895C14.4949 10.4821 14.4012 10.6682 14.2407 10.7752Z" fill="black"/>
<path d="M4.11447 0C3.10198 0 1.70034 0.508314 0.772872 2.93002C0.202419 4.41939 0 6.17435 0 7.22461C0 8.67056 0.737947 9.98402 1.97397 10.7382C2.31777 10.948 2.51747 11.3025 2.50814 11.6864L2.11153 27.9475C2.09825 28.4918 2.30034 29.006 2.68062 29.3957C3.06084 29.7853 3.57006 29.9999 4.11447 29.9999C4.65887 29.9999 5.16816 29.7853 5.54837 29.3957C5.92865 29.0061 6.13075 28.4918 6.11747 27.9475L5.72079 11.6865C5.71146 11.3025 5.91116 10.948 6.25496 10.7382C7.49105 9.98402 8.22893 8.6705 8.22893 7.22461C8.22893 6.17435 8.02651 4.41945 7.45606 2.93002C6.52865 0.508314 5.12701 0 4.11447 0ZM5.74865 9.90847C5.11451 10.2954 4.73151 10.9857 4.74913 11.7101L5.14574 27.9711C5.15261 28.2514 5.04855 28.5162 4.85274 28.7168C4.65693 28.9175 4.3947 29.0279 4.1144 29.0279C3.8341 29.0279 3.57187 28.9175 3.37607 28.7169C3.18026 28.5163 3.07619 28.2514 3.08306 27.9711L3.47967 11.7101C3.49736 10.9858 3.11436 10.2954 2.48015 9.90847C1.5357 9.33225 0.971856 8.3289 0.971856 7.22461C0.971856 5.18455 1.74 0.97192 4.1144 0.97192C6.4888 0.97192 7.25695 5.18455 7.25695 7.22461C7.25701 8.3289 6.69323 9.33225 5.74865 9.90847Z" fill="black"/>
</svg>
