<svg width="24" height="30" viewBox="0 0 24 30" fill="none" xmlns="http://www.w3.org/2000/svg">
<path d="M19.793 2.34375H15.3735C14.8896 0.979614 13.5864 0 12.0586 0C10.5308 0 9.22755 0.979614 8.7437 2.34375H4.26562C2.327 2.34375 0.75 3.92075 0.75 5.85938V26.4844C0.75 28.423 2.327 30 4.26562 30H19.7966C21.7332 29.9979 23.3086 28.4209 23.3086 26.4844V5.85938C23.3086 3.92075 21.7316 2.34375 19.793 2.34375ZM10.8867 4.6875V3.51562C10.8867 2.86949 11.4125 2.34375 12.0586 2.34375C12.7047 2.34375 13.2305 2.86949 13.2305 3.51562V4.6875H15.5742V6.97266H8.54297V4.6875H10.8867ZM20.9648 26.4844C20.9648 27.1298 20.4396 27.6556 19.7955 27.6562H4.26562C3.61949 27.6562 3.09375 27.1305 3.09375 26.4844V5.85938C3.09375 5.21324 3.61949 4.6875 4.26562 4.6875H6.19922V9.31641H17.918V4.6875H19.793C20.4391 4.6875 20.9648 5.21324 20.9648 5.85938V26.4844ZM16.5238 13.4789L18.2572 15.0563L10.7519 23.3034L5.79456 18.5083L7.42419 16.8237L10.6448 19.9388L16.5238 13.4789Z" fill="black"/>
</svg>
